<svg width="25" height="25" viewBox="0 0 25 25" fill="none" xmlns="http://www.w3.org/2000/svg">
<path d="M18.2966 22.8386H8.18664C7.86664 22.8386 7.58664 22.6386 7.47664 22.3486C7.36664 22.0486 7.45664 21.7186 7.69664 21.5186C7.93664 21.3186 8.15664 21.0586 8.31664 20.7786C8.63664 20.2686 8.79664 19.6886 8.79664 19.0986C8.79664 17.3086 7.33664 15.8486 5.54664 15.8486C4.80664 15.8486 4.10664 16.0986 3.51664 16.5686C3.28664 16.7486 2.98664 16.7786 2.72664 16.6586C2.46664 16.5386 2.30664 16.2686 2.30664 15.9786V11.6086C2.30664 9.11864 4.32664 7.09863 6.81664 7.09863H18.2966C20.7866 7.09863 22.8066 9.11864 22.8066 11.6086V13.0486C22.8066 13.4586 22.4666 13.7986 22.0566 13.7986H20.0366C19.6866 13.7986 19.3666 13.9286 19.1366 14.1686L19.1266 14.1786C18.8466 14.4486 18.7166 14.8186 18.7466 15.1986C18.8066 15.8586 19.4366 16.3886 20.1566 16.3886H22.0566C22.4666 16.3886 22.8066 16.7286 22.8066 17.1386V18.3286C22.8066 20.8186 20.7866 22.8386 18.2966 22.8386ZM9.73664 21.3386H18.2966C19.9566 21.3386 21.3066 19.9886 21.3066 18.3286V17.8886H20.1566C18.6466 17.8886 17.3666 16.7686 17.2466 15.3286C17.1666 14.5086 17.4666 13.6986 18.0666 13.1086C18.5866 12.5786 19.2866 12.2886 20.0366 12.2886H21.3066V11.5986C21.3066 9.93863 19.9566 8.58862 18.2966 8.58862H6.81664C5.15664 8.58862 3.80664 9.93863 3.80664 11.5986V14.6786C4.36664 14.4587 4.95664 14.3386 5.55664 14.3386C8.17664 14.3386 10.3066 16.4686 10.3066 19.0886C10.3066 19.8786 10.1066 20.6586 9.73664 21.3386Z" fill="#222222"/>
<path d="M3.05664 13.2489C2.64664 13.2489 2.30664 12.9089 2.30664 12.4989V7.92893C2.30664 6.43893 3.24664 5.08887 4.63664 4.55887L12.5766 1.55887C13.3966 1.24887 14.3066 1.35892 15.0166 1.85892C15.7366 2.35892 16.1566 3.16891 16.1566 4.03891V7.8389C16.1566 8.2489 15.8166 8.5889 15.4066 8.5889C14.9966 8.5889 14.6566 8.2489 14.6566 7.8389V4.03891C14.6566 3.65891 14.4766 3.3089 14.1566 3.0889C13.8366 2.8689 13.4566 2.8189 13.0966 2.9589L5.15664 5.9589C4.34664 6.2689 3.79664 7.05893 3.79664 7.92893V12.4989C3.80664 12.9189 3.46664 13.2489 3.05664 13.2489Z" fill="#222222"/>
<path d="M20.1571 17.889C18.6471 17.889 17.3671 16.769 17.2471 15.329C17.1671 14.499 17.4671 13.6891 18.0671 13.0991C18.5771 12.5791 19.2771 12.2891 20.0271 12.2891H22.1071C23.0971 12.3191 23.8571 13.099 23.8571 14.059V16.1191C23.8571 17.0791 23.0971 17.859 22.1371 17.889H20.1571ZM22.0871 13.7891H20.0371C19.6871 13.7891 19.3671 13.9191 19.1371 14.1591C18.8471 14.4391 18.7071 14.819 18.7471 15.199C18.8071 15.859 19.4371 16.389 20.1571 16.389H22.1171C22.2471 16.389 22.3671 16.2691 22.3671 16.1191V14.059C22.3671 13.909 22.2471 13.7991 22.0871 13.7891Z" fill="#222222"/>
<path d="M14.5566 12.8389H7.55664C7.14664 12.8389 6.80664 12.4989 6.80664 12.0889C6.80664 11.6789 7.14664 11.3389 7.55664 11.3389H14.5566C14.9666 11.3389 15.3066 11.6789 15.3066 12.0889C15.3066 12.4989 14.9666 12.8389 14.5566 12.8389Z" fill="#222222"/>
<path d="M5.55664 23.8389C3.89664 23.8389 2.33664 22.9589 1.49664 21.5289C1.04664 20.8089 0.806641 19.9589 0.806641 19.0889C0.806641 17.6289 1.45664 16.2788 2.58664 15.3788C3.42664 14.7088 4.48664 14.3389 5.55664 14.3389C8.17664 14.3389 10.3066 16.4689 10.3066 19.0889C10.3066 19.9589 10.0666 20.8089 9.61664 21.5389C9.37664 21.9589 9.04664 22.3389 8.66664 22.6589C7.83664 23.4189 6.72664 23.8389 5.55664 23.8389ZM5.55664 15.8389C4.81664 15.8389 4.11664 16.0888 3.52664 16.5588C2.75664 17.1688 2.30664 18.0989 2.30664 19.0889C2.30664 19.6789 2.46664 20.2589 2.77664 20.7589C3.36664 21.7589 4.40664 22.3389 5.55664 22.3389C6.34664 22.3389 7.10664 22.0489 7.68664 21.5289C7.94664 21.3089 8.16664 21.0489 8.32664 20.7689C8.64664 20.2589 8.80664 19.6789 8.80664 19.0889C8.80664 17.2989 7.34664 15.8389 5.55664 15.8389Z" fill="#222222"/>
<path d="M6.62703 20.8789C6.43703 20.8789 6.24703 20.809 6.09703 20.659L3.98703 18.549C3.69703 18.259 3.69703 17.779 3.98703 17.489C4.27703 17.199 4.75703 17.199 5.04703 17.489L7.15703 19.599C7.44703 19.889 7.44703 20.369 7.15703 20.659C7.00703 20.809 6.81703 20.8789 6.62703 20.8789Z" fill="#222222"/>
<path d="M4.48578 20.9083C4.29578 20.9083 4.10578 20.8383 3.95578 20.6883C3.66578 20.3983 3.66578 19.9183 3.95578 19.6283L6.06578 17.5183C6.35578 17.2283 6.83578 17.2283 7.12578 17.5183C7.41578 17.8083 7.41578 18.2883 7.12578 18.5783L5.01578 20.6883C4.86578 20.8383 4.67578 20.9083 4.48578 20.9083Z" fill="#222222"/>
</svg>
